ISO-10303-21;
HEADER;
FILE_DESCRIPTION (( 'STEP AP214' ),
    '1' );
FILE_NAME ('robot.STEP',
    '2026-09-09T20:17:41',
    ( '' ),
    ( '' ),
    'SwSTEP 2.0',
    'SolidWorks 2023',
    '' );
FILE_SCHEMA (( 'AUTOMOTIVE_DESIGN' ));
ENDSEC;

DATA;
#1 = DIRECTION ( 'NONE',  ( 1.000000000000000000, 0.000000000000000000, 0.000000000000000000 ) ) ;
#2 = DIRECTION ( 'NONE',  ( 0.000000000000000000, 0.000000000000000000, 1.000000000000000000 ) ) ;
#3 = PRODUCT_DEFINITION_SHAPE ( 'NONE', 'NONE',  #53 ) ;
#4 = SURFACE_STYLE_USAGE ( .BOTH. , #86 ) ;
#5 = MECHANICAL_DESIGN_GEOMETRIC_PRESENTATION_REPRESENTATION (  '', ( #64 ), #52 ) ;
#6 = SPHERICAL_SURFACE ( 'NONE', #83, 21.00000000000000000 ) ;
#7 = ORIENTED_EDGE ( 'NONE', *, *, #10, .F. ) ;
#8 = CARTESIAN_POINT ( 'NONE',  ( 1.285879139104720831E-15, -21.00000000000000000, 0.000000000000000000 ) ) ;
#9 = PRODUCT ( 'robot', 'robot', '', ( #108 ) ) ;
#10 = EDGE_CURVE ( 'NONE', #107, #105, #18, .T. ) ;
#11 = FILL_AREA_STYLE_COLOUR ( '', #45 ) ;
#12 = DIRECTION ( 'NONE',  ( -1.000000000000000000, 0.000000000000000000, -1.224646799147353207E-16 ) ) ;
#13 = APPLICATION_CONTEXT ( 'automotive_design' ) ;
#14 = CLOSED_SHELL ( 'NONE', ( #103, #62 ) ) ;
#15 = DIRECTION ( 'NONE',  ( 0.000000000000000000, 0.000000000000000000, 1.000000000000000000 ) ) ;
#16 = APPLICATION_PROTOCOL_DEFINITION ( 'draft international standard', 'automotive_design', 1998, #13 ) ;
#17 = APPLICATION_CONTEXT ( 'automotive_design' ) ;
#18 = CIRCLE ( 'NONE', #110, 21.00000000000000000 ) ;
#19 =( NAMED_UNIT ( * ) SI_UNIT ( $, .STERADIAN. ) SOLID_ANGLE_UNIT ( ) );
#20 = DIRECTION ( 'NONE',  ( 1.000000000000000000, 0.000000000000000000, 0.000000000000000000 ) ) ;
#21 = AXIS2_PLACEMENT_3D ( 'NONE', #31, #15, #95 ) ;
#22 =( NAMED_UNIT ( * ) PLANE_ANGLE_UNIT ( ) SI_UNIT ( $, .RADIAN. ) );
#23 = AXIS2_PLACEMENT_3D ( 'NONE', #98, #46, #39 ) ;
#24 = FILL_AREA_STYLE ('',( #11 ) ) ;
#25 = PRODUCT_RELATED_PRODUCT_CATEGORY ( 'part', '', ( #61 ) ) ;
#26 = ORIENTED_EDGE ( 'NONE', *, *, #106, .F. ) ;
#27 = AXIS2_PLACEMENT_3D ( 'NONE', #51, #2, #36 ) ;
#28 = PRESENTATION_LAYER_ASSIGNMENT (  '', '', ( #64 ) ) ;
#29 = APPLICATION_CONTEXT ( 'automotive_design' ) ;
#30 = CONTEXT_DEPENDENT_SHAPE_REPRESENTATION ( #32, #96 ) ;
#31 = CARTESIAN_POINT ( 'NONE',  ( 0.000000000000000000, 0.000000000000000000, 0.000000000000000000 ) ) ;
#32 =( REPRESENTATION_RELATIONSHIP ('NONE','NONE', #80, #70 ) REPRESENTATION_RELATIONSHIP_WITH_TRANSFORMATION ( #84 )SHAPE_REPRESENTATION_RELATIONSHIP( ) );
#33 = CARTESIAN_POINT ( 'NONE',  ( 0.000000000000000000, 0.000000000000000000, 0.000000000000000000 ) ) ;
#34 =( GEOMETRIC_REPRESENTATION_CONTEXT ( 3 ) GLOBAL_UNCERTAINTY_ASSIGNED_CONTEXT ( ( #101 ) ) GLOBAL_UNIT_ASSIGNED_CONTEXT ( ( #72, #82, #19 ) ) REPRESENTATION_CONTEXT ( 'NONE', 'WORKASPACE' ) );
#35 = APPLICATION_PROTOCOL_DEFINITION ( 'draft international standard', 'automotive_design', 1998, #17 ) ;
#36 = DIRECTION ( 'NONE',  ( 1.000000000000000000, 0.000000000000000000, 0.000000000000000000 ) ) ;
#37 = AXIS2_PLACEMENT_3D ( 'NONE', #92, #55, #78 ) ;
#38 = MANIFOLD_SOLID_BREP ( 'Revolve1', #14 ) ;
#39 = DIRECTION ( 'NONE',  ( -1.000000000000000000, 2.109087804249117062E-17, 1.163523599692398249E-16 ) ) ;
#40 = EDGE_LOOP ( 'NONE', ( #26, #66 ) ) ;
#41 =( LENGTH_UNIT ( ) NAMED_UNIT ( * ) SI_UNIT ( .MILLI., .METRE. ) );
#42 = APPLICATION_CONTEXT ( 'automotive_design' ) ;
#43 = PRODUCT_DEFINITION_FORMATION_WITH_SPECIFIED_SOURCE ( 'ANY', '', #61, .NOT_KNOWN. ) ;
#44 = DIRECTION ( 'NONE',  ( 0.000000000000000000, 0.000000000000000000, -1.000000000000000000 ) ) ;
#45 = COLOUR_RGB ( '',0.7921568627450980005, 0.8196078431372548767, 0.9333333333333333481 ) ;
#46 = DIRECTION ( 'NONE',  ( -9.325458364164920252E-18, -0.9999999999999998890, -3.469446951953614189E-16 ) ) ;
#47 = PRESENTATION_STYLE_ASSIGNMENT (( #4 ) ) ;
#48 = ORIENTED_EDGE ( 'NONE', *, *, #106, .T. ) ;
#49 = EDGE_LOOP ( 'NONE', ( #7, #48 ) ) ;
#50 = SPHERICAL_SURFACE ( 'NONE', #69, 21.00000000000000000 ) ;
#51 = CARTESIAN_POINT ( 'NONE',  ( 0.000000000000000000, 0.000000000000000000, 0.000000000000000000 ) ) ;
#52 =( GEOMETRIC_REPRESENTATION_CONTEXT ( 3 ) GLOBAL_UNCERTAINTY_ASSIGNED_CONTEXT ( ( #60 ) ) GLOBAL_UNIT_ASSIGNED_CONTEXT ( ( #41, #99, #58 ) ) REPRESENTATION_CONTEXT ( 'NONE', 'WORKASPACE' ) );
#53 = PRODUCT_DEFINITION ( 'UNKNOWN', '', #43, #59 ) ;
#54 = DIRECTION ( 'NONE',  ( 1.224646799147353207E-16, 0.000000000000000000, -1.000000000000000000 ) ) ;
#55 = DIRECTION ( 'NONE',  ( 0.000000000000000000, 0.000000000000000000, 1.000000000000000000 ) ) ;
#56 =( NAMED_UNIT ( * ) SI_UNIT ( $, .STERADIAN. ) SOLID_ANGLE_UNIT ( ) );
#57 = DIRECTION ( 'NONE',  ( 1.000000000000000000, 0.000000000000000000, 0.000000000000000000 ) ) ;
#58 =( NAMED_UNIT ( * ) SI_UNIT ( $, .STERADIAN. ) SOLID_ANGLE_UNIT ( ) );
#59 = PRODUCT_DEFINITION_CONTEXT ( 'detailed design', #29, 'design' ) ;
#60 = UNCERTAINTY_MEASURE_WITH_UNIT (LENGTH_MEASURE( 1.000000000000000082E-05 ), #41, 'distance_accuracy_value', 'NONE');
#61 = PRODUCT ( 'Ball', 'Ball', '', ( #75 ) ) ;
#62 = ADVANCED_FACE ( 'NONE', ( #88 ), #6, .T. ) ;
#63 = CARTESIAN_POINT ( 'NONE',  ( 1.285879139104720831E-15, 21.00000000000000000, 0.000000000000000000 ) ) ;
#64 = STYLED_ITEM ( 'NONE', ( #47 ), #38 ) ;
#65 = DIRECTION ( 'NONE',  ( 0.000000000000000000, 0.000000000000000000, -1.000000000000000000 ) ) ;
#66 = ORIENTED_EDGE ( 'NONE', *, *, #10, .T. ) ;
#67 = PRODUCT_RELATED_PRODUCT_CATEGORY ( 'part', '', ( #9 ) ) ;
#68 = PRODUCT_DEFINITION_CONTEXT ( 'detailed design', #17, 'design' ) ;
#69 = AXIS2_PLACEMENT_3D ( 'NONE', #89, #44, #1 ) ;
#70 = SHAPE_REPRESENTATION ( 'Ball', ( #27 ), #34 ) ;
#71 = APPLICATION_PROTOCOL_DEFINITION ( 'draft international standard', 'automotive_design', 1998, #29 ) ;
#72 =( LENGTH_UNIT ( ) NAMED_UNIT ( * ) SI_UNIT ( .MILLI., .METRE. ) );
#73 = SHAPE_DEFINITION_REPRESENTATION ( #91, #80 ) ;
#74 = ADVANCED_BREP_SHAPE_REPRESENTATION ( '', ( #38, #27 ), #34 ) ;
#75 = PRODUCT_CONTEXT ( 'NONE', #13, 'mechanical' ) ;
#76 = SHAPE_REPRESENTATION_RELATIONSHIP ( 'NONE' , 'NONE' ,  #70, #74 ) ;
#77 = APPLICATION_PROTOCOL_DEFINITION ( 'draft international standard', 'automotive_design', 1998, #42 ) ;
#78 = DIRECTION ( 'NONE',  ( 1.000000000000000000, 0.000000000000000000, 0.000000000000000000 ) ) ;
#79 = SURFACE_STYLE_FILL_AREA ( #24 ) ;
#80 = SHAPE_REPRESENTATION ( 'robot', ( #37, #23 ), #94 ) ;
#81 = PRODUCT_DEFINITION ( 'UNKNOWN', '', #102, #68 ) ;
#82 =( NAMED_UNIT ( * ) PLANE_ANGLE_UNIT ( ) SI_UNIT ( $, .RADIAN. ) );
#83 = AXIS2_PLACEMENT_3D ( 'NONE', #111, #65, #57 ) ;
#84 = ITEM_DEFINED_TRANSFORMATION ( 'NONE', 'NONE', #23,  #27 ) ;
#85 =( LENGTH_UNIT ( ) NAMED_UNIT ( * ) SI_UNIT ( .MILLI., .METRE. ) );
#86 = SURFACE_SIDE_STYLE ('',( #79 ) ) ;
#87 = CIRCLE ( 'NONE', #21, 21.00000000000000000 ) ;
#88 = FACE_OUTER_BOUND ( 'NONE', #49, .T. ) ;
#89 = CARTESIAN_POINT ( 'NONE',  ( 0.000000000000000000, 0.000000000000000000, 0.000000000000000000 ) ) ;
#90 = AXIS2_PLACEMENT_3D ( 'NONE', #109, #97, #20 ) ;
#91 = PRODUCT_DEFINITION_SHAPE ( 'NONE', 'NONE',  #81 ) ;
#92 = CARTESIAN_POINT ( 'NONE',  ( 0.000000000000000000, 0.000000000000000000, 0.000000000000000000 ) ) ;
#93 = FACE_OUTER_BOUND ( 'NONE', #40, .T. ) ;
#94 =( GEOMETRIC_REPRESENTATION_CONTEXT ( 3 ) GLOBAL_UNCERTAINTY_ASSIGNED_CONTEXT ( ( #100 ) ) GLOBAL_UNIT_ASSIGNED_CONTEXT ( ( #85, #22, #56 ) ) REPRESENTATION_CONTEXT ( 'NONE', 'WORKASPACE' ) );
#95 = DIRECTION ( 'NONE',  ( 1.000000000000000000, 0.000000000000000000, 0.000000000000000000 ) ) ;
#96 = PRODUCT_DEFINITION_SHAPE ( 'NONE', 'NONE',  #112 ) ;
#97 = DIRECTION ( 'NONE',  ( 0.000000000000000000, 0.000000000000000000, 1.000000000000000000 ) ) ;
#98 = CARTESIAN_POINT ( 'NONE',  ( -5.375895334401448140E-16, 92.37139059416232101, -15.00000000000000178 ) ) ;
#99 =( NAMED_UNIT ( * ) PLANE_ANGLE_UNIT ( ) SI_UNIT ( $, .RADIAN. ) );
#100 = UNCERTAINTY_MEASURE_WITH_UNIT (LENGTH_MEASURE( 1.000000000000000082E-05 ), #85, 'distance_accuracy_value', 'NONE');
#101 = UNCERTAINTY_MEASURE_WITH_UNIT (LENGTH_MEASURE( 1.000000000000000082E-05 ), #72, 'distance_accuracy_value', 'NONE');
#102 = PRODUCT_DEFINITION_FORMATION_WITH_SPECIFIED_SOURCE ( 'ANY', '', #9, .NOT_KNOWN. ) ;
#103 = ADVANCED_FACE ( 'NONE', ( #93 ), #50, .T. ) ;
#104 = SHAPE_DEFINITION_REPRESENTATION ( #3, #70 ) ;
#105 = VERTEX_POINT ( 'NONE', #63 ) ;
#106 = EDGE_CURVE ( 'NONE', #107, #105, #87, .T. ) ;
#107 = VERTEX_POINT ( 'NONE', #8 ) ;
#108 = PRODUCT_CONTEXT ( 'NONE', #42, 'mechanical' ) ;
#109 = CARTESIAN_POINT ( 'NONE',  ( 0.000000000000000000, 0.000000000000000000, 0.000000000000000000 ) ) ;
#110 = AXIS2_PLACEMENT_3D ( 'NONE', #33, #54, #12 ) ;
#111 = CARTESIAN_POINT ( 'NONE',  ( 0.000000000000000000, 0.000000000000000000, 0.000000000000000000 ) ) ;
#112 = NEXT_ASSEMBLY_USAGE_OCCURRENCE ( 'NAUO1', ' ', ' ', #81, #53, $ ) ;
ENDSEC;
END-ISO-10303-21;
